<?xml version="1.0" standalone="no"?>
<!DOCTYPE svg PUBLIC "-//W3C//DTD SVG 20010904//EN"
 "http://www.w3.org/TR/2001/REC-SVG-20010904/DTD/svg10.dtd">
<svg version="1.0" xmlns="http://www.w3.org/2000/svg"
 width="212.000000pt" height="212.000000pt" viewBox="0 0 212.000000 212.000000"
 preserveAspectRatio="xMidYMid meet">
<metadata>
Created by potrace 1.11, written by Peter Selinger 2001-2013
</metadata>
<g transform="translate(0.000000,212.000000) scale(0.100000,-0.100000)"
fill="#000000" stroke="none">
<path d="M956 2103 c-1 -1 -19 -5 -40 -9 -21 -3 -48 -8 -60 -11 -11 -2 -30 -5
-41 -6 -11 -1 -22 -4 -25 -7 -3 -3 -30 -13 -62 -23 -66 -21 -208 -91 -244
-122 -6 -5 -24 -19 -40 -30 -51 -37 -89 -70 -124 -109 -19 -22 -44 -49 -55
-60 -28 -28 -149 -216 -140 -216 3 0 -4 -18 -15 -39 -24 -49 -72 -210 -65
-221 3 -5 2 -11 -3 -14 -16 -10 -21 -229 -8 -326 5 -30 8 -61 9 -67 0 -7 4
-13 9 -13 5 0 7 -4 4 -9 -13 -21 98 -293 128 -313 7 -5 7 -8 1 -8 -7 0 -7 -3
0 -8 6 -4 29 -32 51 -62 116 -156 246 -253 469 -351 35 -15 168 -48 225 -55
103 -13 302 -4 354 16 14 5 26 8 26 5 0 -6 138 42 190 66 45 21 161 88 170 98
3 4 21 18 40 32 56 42 122 109 176 179 46 59 114 164 114 175 0 2 11 28 24 57
101 225 111 488 29 748 -14 47 -29 87 -32 90 -3 3 -16 25 -29 50 -25 50 -57
104 -87 146 -37 52 -191 199 -246 236 -47 31 -185 108 -192 107 -9 -2 -57 15
-57 20 0 4 -8 7 -17 8 -10 1 -36 6 -58 13 -40 11 -46 12 -120 26 -38 6 -253
12 -259 7z m239 -107 c48 -7 117 -22 123 -26 1 -2 5 -3 10 -4 97 -26 192 -69
289 -132 70 -46 225 -200 244 -243 8 -17 17 -31 21 -31 5 0 8 -6 8 -14 0 -8 4
-16 8 -18 14 -5 68 -128 90 -203 67 -231 46 -501 -56 -715 -14 -30 -26 -58
-26 -62 -1 -4 -7 -13 -13 -20 -7 -6 -13 -18 -13 -25 0 -7 -4 -13 -8 -13 -4 0
-15 -12 -24 -27 -86 -145 -304 -305 -493 -361 -68 -21 -84 -24 -173 -37 -73
-10 -202 -6 -277 9 -16 3 -40 8 -53 10 -12 3 -27 8 -32 11 -5 3 -20 8 -32 10
-29 6 -148 55 -168 70 -8 6 -27 17 -42 25 -15 7 -36 21 -45 30 -10 9 -26 21
-35 26 -28 16 -111 97 -153 149 -22 28 -43 52 -47 53 -5 2 -8 8 -8 12 0 5 -12
26 -26 47 -24 35 -104 195 -108 218 -2 6 -8 30 -15 55 -50 176 -49 370 4 540
10 30 17 57 17 60 1 9 94 186 106 201 6 8 33 41 60 74 143 175 377 305 596
331 28 4 52 8 54 9 5 4 174 -3 217 -9z"/>
<path d="M814 1898 c-4 -7 -9 -37 -10 -68 -1 -30 -8 -77 -17 -104 -9 -27 -14
-53 -11 -58 3 -4 0 -8 -6 -8 -6 0 -9 -4 -5 -9 3 -5 1 -12 -4 -15 -5 -4 -8 -17
-7 -31 2 -13 0 -22 -5 -20 -4 3 -10 -13 -14 -35 -4 -22 -13 -47 -22 -55 -11
-12 -11 -15 -1 -15 11 0 11 -2 0 -9 -10 -6 -7 -12 12 -24 14 -10 29 -17 33
-17 5 0 33 -27 63 -61 30 -34 62 -69 71 -78 8 -9 36 -41 62 -72 63 -75 98 -84
112 -29 3 14 2 37 -3 50 -7 18 -4 45 10 94 16 60 33 103 93 251 5 11 9 22 10
25 1 3 5 13 8 23 14 36 14 43 3 59 -7 9 -19 18 -26 20 -8 2 -58 35 -112 75
-54 40 -114 80 -133 89 -19 9 -35 20 -35 25 0 14 -58 11 -66 -3z m159 -162
c14 -13 46 -39 71 -57 25 -18 46 -35 46 -39 0 -4 -12 -35 -26 -71 -15 -35 -41
-103 -58 -151 l-32 -87 -93 95 c-51 52 -89 94 -83 94 5 0 13 15 17 33 4 17 9
35 10 40 4 11 5 16 6 25 0 4 4 12 8 17 5 6 12 24 16 40 12 45 12 45 15 48 2 3
10 38 12 58 2 14 6 14 34 -3 17 -10 43 -29 57 -42z m-206 -201 c0 -8 -4 -12
-9 -9 -5 3 -6 10 -3 15 9 13 12 11 12 -6z"/>
<path d="M1292 1618 c-5 -7 -13 -29 -17 -48 -4 -19 -10 -39 -13 -45 -4 -5 -7
-14 -8 -20 -2 -10 -65 -167 -89 -220 -7 -16 -32 -84 -55 -150 -22 -66 -45
-124 -49 -128 -5 -5 -88 71 -185 168 -97 97 -176 174 -176 172 0 -3 -15 10
-33 27 -37 34 -72 43 -81 20 -3 -8 -2 -12 3 -9 5 3 12 1 16 -5 3 -5 1 -10 -5
-10 -6 0 5 -16 24 -35 20 -19 33 -35 29 -35 -3 0 4 -9 17 -20 12 -11 27 -17
33 -13 5 3 7 1 3 -5 -7 -12 150 -178 165 -174 6 1 8 -2 4 -8 -3 -5 -1 -10 6
-10 7 0 9 -3 6 -6 -10 -10 34 -45 46 -37 5 3 7 1 3 -5 -3 -6 17 -34 45 -62
l51 -52 -11 -41 c-7 -23 -13 -46 -15 -52 -2 -5 -6 -23 -11 -40 -4 -16 -10 -34
-14 -40 -3 -5 -6 -12 -7 -15 0 -3 -6 -23 -12 -45 -6 -22 -11 -42 -10 -45 0 -3
-9 -24 -21 -47 -12 -24 -19 -43 -15 -43 4 0 1 -6 -5 -14 -6 -8 -11 -18 -10
-22 1 -5 -3 -22 -10 -39 -7 -16 -14 -37 -16 -45 -2 -8 -4 -16 -5 -17 -2 -2 -4
-7 -5 -13 -1 -5 -4 -12 -5 -15 -1 -3 -3 -8 -5 -12 -1 -5 -7 -21 -13 -36 -7
-16 -10 -32 -7 -37 3 -5 -1 -11 -7 -13 -10 -4 -10 -6 0 -6 10 -1 9 -6 -4 -18
-15 -16 -15 -17 2 -24 11 -4 14 -8 7 -8 -15 -1 -10 -30 7 -41 16 -10 33 -3 25
11 -4 5 -2 9 4 9 6 0 7 7 4 17 -4 11 -3 14 5 9 7 -4 13 -1 13 8 2 19 4 26 13
48 4 9 4 22 0 29 -4 8 -3 9 4 5 12 -7 28 37 23 63 -1 7 2 10 7 7 9 -5 39 80
34 97 -1 4 3 7 8 7 6 0 10 9 10 19 0 11 5 23 11 27 8 4 7 9 -2 15 -9 5 -9 9
-3 9 13 0 23 25 36 92 2 7 6 15 10 18 4 3 9 17 12 32 2 14 9 36 16 47 6 12 8
26 5 31 -3 5 -1 11 5 15 5 3 10 15 10 26 0 27 9 24 56 -18 68 -62 109 -97 138
-118 15 -11 41 -32 58 -47 18 -16 38 -28 45 -28 7 0 13 -4 13 -9 0 -4 31 -28
70 -52 38 -24 70 -47 70 -51 0 -5 5 -8 10 -8 6 0 16 -5 23 -10 55 -47 60 -49
77 -40 48 26 31 62 -59 122 -42 28 -79 56 -83 62 -4 6 -8 7 -8 3 0 -4 -10 1
-22 13 -12 11 -25 20 -30 20 -4 0 -16 8 -27 18 -26 24 -90 73 -93 71 -2 -1
-19 13 -39 32 -94 89 -123 114 -131 111 -4 -1 -8 4 -8 12 0 8 -5 16 -12 18 -9
3 -6 22 11 68 13 35 24 68 26 74 2 13 -2 3 88 226 108 271 115 293 94 328 -5
6 -19 12 -31 12 -13 0 -28 -6 -34 -12z m-662 -224 c0 -8 -19 -13 -24 -6 -3 5
1 9 9 9 8 0 15 -2 15 -3z m4 -29 c-4 -8 -11 -12 -16 -9 -6 4 -5 10 3 15 19 12
19 11 13 -6z m13 -30 c0 -8 -4 -12 -9 -9 -5 3 -6 10 -3 15 9 13 12 11 12 -6z
m34 -28 c-10 -9 -11 -8 -5 6 3 10 9 15 12 12 3 -3 0 -11 -7 -18z m184 -1047
c3 -5 1 -10 -4 -10 -6 0 -11 5 -11 10 0 6 2 10 4 10 3 0 8 -4 11 -10z m-8 -64
c0 -8 -6 -12 -14 -9 -7 3 -10 9 -7 14 8 14 21 11 21 -5z"/>
<path d="M727 1421 c14 -17 43 -19 43 -4 0 3 -6 3 -14 0 -8 -3 -17 1 -20 9 -3
8 -10 14 -16 14 -5 0 -2 -9 7 -19z"/>
<path d="M1429 1236 c-47 -12 -148 -71 -150 -87 -1 -5 -2 -15 -3 -21 -1 -7 8
-24 20 -38 27 -30 83 -144 115 -234 29 -80 47 -105 78 -108 40 -5 53 33 33 91
-10 25 -20 48 -23 51 -3 3 -10 19 -16 36 -10 30 -10 31 37 52 56 26 96 64 115
109 12 29 12 38 -2 70 -31 75 -107 104 -204 79z m111 -91 c16 -10 12 -40 -7
-57 -24 -21 -79 -48 -97 -48 -8 0 -18 10 -22 22 -3 12 -13 28 -20 36 -21 21
-17 28 24 45 35 14 100 15 122 2z"/>
<path d="M600 1004 c-115 -26 -189 -51 -191 -64 0 -3 -2 -13 -4 -23 -3 -18 28
-41 48 -34 16 6 47 -11 47 -24 0 -6 26 -63 57 -126 31 -63 56 -122 56 -129 0
-8 5 -14 10 -14 6 0 8 -3 4 -6 -10 -10 23 -66 51 -88 47 -37 72 -24 81 44 0 6
7 10 15 10 7 0 35 19 61 42 88 78 103 167 38 232 -31 31 -97 66 -125 66 -22 0
-22 3 -3 41 17 33 9 61 -24 79 -23 12 -46 10 -121 -6z m4 -105 c-11 -12 -21
-16 -27 -10 -13 13 -2 26 23 28 21 2 22 1 4 -18z m166 -109 c68 -35 72 -72 12
-127 -40 -39 -77 -43 -87 -11 -4 11 -20 42 -35 68 -15 26 -31 57 -35 68 -6 21
-3 22 50 22 36 0 70 -7 95 -20z"/>
</g>
</svg>
