<svg xmlns="http://www.w3.org/2000/svg" viewBox="0 0 1134.05 224.13"><defs><style>.cls-1{fill:#f8ba00;}</style></defs><g id="Layer_2" data-name="Layer 2"><g id="Layer_1-2" data-name="Layer 1"><polygon class="cls-1" points="274.08 80.67 279.81 80.67 279.81 71 270.39 71 246.94 9.67 251.47 9.67 251.47 0 243.53 0 243.24 0 202.92 0 202.63 0 193.61 0 193.61 9.67 199.22 9.67 175.77 71 166.33 71 166.33 80.67 172.07 80.67 143.56 155.26 134.92 155.26 134.92 164.93 192.78 164.93 192.78 155.26 184.17 155.26 223.08 53.48 261.99 155.26 253.01 155.26 253.01 164.93 310.88 164.93 310.88 155.26 302.6 155.26 274.08 80.67"/><polygon class="cls-1" points="600.31 80.67 606.04 80.67 606.04 71 596.62 71 573.17 9.67 577.7 9.67 577.7 0 569.75 0 569.47 0 529.15 0 528.86 0 519.84 0 519.84 9.67 525.45 9.67 502 71 492.56 71 492.56 80.67 498.31 80.67 469.79 155.26 461.15 155.26 461.15 164.93 519.01 164.93 519.01 155.26 510.4 155.26 549.31 53.48 588.22 155.26 579.24 155.26 579.24 164.93 637.11 164.93 637.11 155.26 628.83 155.26 600.31 80.67"/><polygon class="cls-1" points="771.07 0 761.45 0 761.45 9.67 771.07 9.67 771.07 94.61 704.57 9.67 707.47 9.67 707.47 0 697.34 0 658.89 0 649.61 0 649.61 9.67 658.89 9.67 658.89 71.97 649.61 71.97 649.61 81.63 658.89 81.63 658.89 155.26 649.61 155.26 649.61 164.93 707.47 164.93 707.47 155.26 697.34 155.26 697.34 63 769.57 155.26 761.45 155.26 761.45 164.93 819.31 164.93 819.31 155.26 809.52 155.26 809.52 81.63 819.31 81.63 819.31 71.97 809.52 71.97 809.52 9.67 819.31 9.67 819.31 0 809.52 0 771.07 0"/><polygon class="cls-1" points="838.46 0 828.84 0 828.84 9.67 838.46 9.67 838.46 71.97 828.84 71.97 828.84 81.63 838.46 81.63 838.46 155.26 828.84 155.26 828.84 164.93 886.7 164.93 886.7 155.26 876.91 155.26 876.91 81.63 886.7 81.63 886.7 71.97 876.91 71.97 876.91 9.67 886.7 9.67 886.7 0 876.91 0 838.46 0"/><polygon class="cls-1" points="1018.42 0 1008.8 0 1008.8 9.67 1018.42 9.67 1018.42 94.61 951.91 9.67 954.81 9.67 954.81 0 944.68 0 906.24 0 896.95 0 896.95 9.67 906.24 9.67 906.24 71.97 896.95 71.97 896.95 81.63 906.24 81.63 906.24 155.26 896.95 155.26 896.95 164.93 954.81 164.93 954.81 155.26 944.68 155.26 944.68 63 1016.92 155.26 1008.8 155.26 1008.8 164.93 1066.66 164.93 1066.66 155.26 1056.87 155.26 1056.87 81.63 1066.66 81.63 1066.66 71.97 1056.87 71.97 1056.87 9.67 1066.66 9.67 1066.66 0 1056.87 0 1018.42 0"/><polygon class="cls-1" points="1134.05 9.67 1134.05 0 1124.26 0 1085.81 0 1076.19 0 1076.19 9.67 1085.81 9.67 1085.81 71.97 1076.19 71.97 1076.19 81.63 1085.81 81.63 1085.81 155.26 1076.19 155.26 1076.19 164.93 1134.05 164.93 1134.05 155.26 1124.26 155.26 1124.26 81.63 1134.05 81.63 1134.05 71.97 1124.26 71.97 1124.26 9.67 1134.05 9.67"/><path class="cls-1" d="M466.73,119.68V73.9H429.14v-6h-9.67v38.71h9.67v-5.33h4.11v10.91A49.76,49.76,0,1,1,422,41.84l-5,5,6.84,6.84,34.26-34.27-6.83-6.83-5.91,5.9A82.42,82.42,0,0,0,311.69,71H302.5v9.66h8.42c0,.6,0,1.19,0,1.8a82.46,82.46,0,0,0,155.85,37.59Z"/><path class="cls-1" d="M143.94,52.54A52.53,52.53,0,0,0,91.61,0H0V9.67H6.36V71.72H0v9.67H6.36v73.87H0v9.67H56.42v-9.67H47.88V105.09H91.4a52.54,52.54,0,0,0,52.54-52.55Zm-34.83,1.58A17.61,17.61,0,0,1,91.5,71.72H46.29V36.52H91.5a17.61,17.61,0,0,1,17.61,17.6Z"/><polygon class="cls-1" points="418.69 191.58 400.71 191.58 391.18 191.58 390.06 191.58 390.06 193.84 391.18 193.84 391.18 221.35 390.06 221.35 390.06 223.62 400.71 223.62 400.71 223.57 416.45 223.57 418.69 223.57 418.72 223.57 418.72 214.92 416.45 214.92 416.45 216.41 398.9 216.41 398.9 210.91 411.36 210.91 411.36 211.89 413.63 211.89 413.63 203.25 411.36 203.25 411.36 204.23 398.9 204.23 398.9 198.73 416.45 198.73 416.45 200.61 418.72 200.61 418.72 191.96 418.69 191.96 418.69 191.58"/><polygon class="cls-1" points="504.81 193.84 505.65 193.84 505.65 191.58 503.84 191.58 495.23 191.58 493.22 191.58 493.22 193.84 494.26 193.84 482.49 221.35 481.08 221.35 481.08 223.62 491.74 223.62 491.74 221.35 490.67 221.35 494.53 212.28 499.61 200.33 504.6 212.28 508.42 221.35 507.47 221.35 507.47 223.62 518.13 223.62 518.13 221.35 516.63 221.35 504.81 193.84"/><path class="cls-1" d="M584.31,191.58h-16v2.26h1.83v27.51h-1.83v2.27H579v-.05h5.33c10,0,16.89-6.73,16.89-16S594.85,191.53,584.31,191.58Zm0,24.84h-6.44V198.73h6.44c5.46,0,9.08,3.05,9.08,8.79C593.39,212.89,589.68,216.42,584.31,216.42Z"/><path class="cls-1" d="M624,191a16.56,16.56,0,1,0,16.52,16.56A16.54,16.54,0,0,0,624,191Zm0,26a9.39,9.39,0,1,1,9.37-9.41A9.41,9.41,0,0,1,624,217Z"/><polygon class="cls-1" points="552.29 191.58 550.07 191.58 550.07 193.84 552.29 193.84 552.29 211.1 537.99 193.84 538.87 193.84 538.87 191.58 536.11 191.58 528.35 191.58 527.04 191.58 527.04 193.84 528.35 193.84 528.35 221.35 527.04 221.35 527.04 223.62 537.7 223.62 537.7 221.35 536.11 221.35 536.11 204 550.46 221.35 550.07 221.35 550.07 223.62 560.72 223.62 560.72 221.35 560.05 221.35 560.05 193.84 560.72 193.84 560.72 191.58 560.05 191.58 552.29 191.58"/><polygon class="cls-1" points="671.5 191.58 669.27 191.58 669.27 193.84 671.5 193.84 671.5 211.1 657.19 193.84 658.08 193.84 658.08 191.58 655.32 191.58 647.55 191.58 646.24 191.58 646.24 193.84 647.55 193.84 647.55 221.35 646.24 221.35 646.24 223.62 656.9 223.62 656.9 221.35 655.32 221.35 655.32 204 669.67 221.35 669.27 221.35 669.27 223.62 679.93 223.62 679.93 221.35 679.26 221.35 679.26 193.84 679.93 193.84 679.93 191.58 679.26 191.58 671.5 191.58"/><polygon class="cls-1" points="692.11 191.58 690.33 191.58 690.33 193.84 692.11 193.84 692.11 221.35 690.33 221.35 690.33 223.62 700.99 223.62 700.99 221.35 699.83 221.35 699.83 193.84 700.99 193.84 700.99 191.58 699.83 191.58 692.11 191.58"/><polygon class="cls-1" points="380.61 216.41 360.85 216.41 360.85 193.84 362.38 193.84 362.38 191.58 360.85 191.58 353.14 191.58 351.72 191.58 351.72 193.84 353.14 193.84 353.14 221.35 351.72 221.35 351.72 223.62 362.38 223.62 362.38 223.57 380.61 223.57 382.87 223.57 382.87 216.41 382.87 214.92 380.61 214.92 380.61 216.41"/><polygon class="cls-1" points="469.73 203.71 457.25 203.71 457.25 198.73 474.82 198.73 474.82 200.61 477.08 200.61 477.08 191.96 477.05 191.96 477.05 191.58 459.08 191.58 449.54 191.58 448.42 191.58 448.42 193.84 449.54 193.84 449.54 221.35 448.22 221.35 448.22 223.62 458.88 223.62 458.88 221.35 457.25 221.35 457.25 210.82 469.73 210.82 469.73 211.46 471.99 211.46 471.99 202.82 469.73 202.82 469.73 203.71"/><polygon class="cls-1" points="738.21 214.92 738.21 216.41 719.66 216.41 719.66 210.91 733.12 210.91 733.12 211.89 735.39 211.89 735.39 203.25 733.12 203.25 733.12 204.23 719.66 204.23 719.66 198.73 738.17 198.73 738.17 200.57 740.44 200.57 740.44 198.73 740.45 198.73 740.45 191.58 721.47 191.58 711.94 191.58 710.81 191.58 710.81 193.84 711.94 193.84 711.94 221.35 710.81 221.35 710.81 223.62 721.47 223.62 721.47 223.57 738.21 223.57 740.45 223.57 740.48 223.57 740.48 214.92 738.21 214.92"/></g></g></svg>