<svg xmlns="http://www.w3.org/2000/svg" viewBox="0 0 363.53 134"><defs><style>.cls-1{fill:#fff;}</style></defs><g id="Layer_2" data-name="Layer 2"><g id="Layer_2-2" data-name="Layer 2"><path class="cls-1" d="M77.63,77.29c-7,.79-20.5,1.61-17.83-9.39a18.94,18.94,0,0,1,15.65-14c2.85-.46,4.44-4,3.73-6.56-.83-3-3.71-4.2-6.56-3.73A29.23,29.23,0,0,0,50.2,62.87C49,55.14,45.08,48.26,39.77,42.54c-3.11-3.36-9.41-7-13.72-9.84a.46.46,0,0,1,.29-.84,53.84,53.84,0,0,1,17.21,5c4.63,2.47,10.06-2.56,7.31-7.3A146.07,146.07,0,0,1,39,3.67C36.73-2.79,26.41,0,28.66,6.51a163.16,163.16,0,0,0,6.65,16.35c-7.79-1.46-23.87-1-31.48,1.7a5.41,5.41,0,0,0-1.27,9.76c12.11,7.49,38,17.06,37.27,33.75C39.61,73.12,36,81.6,29.65,80.2,22.4,78.6,18.46,69.33,17.52,62.84c-.41-2.86-4-4.42-6.56-3.73-3.07.84-4.14,3.7-3.73,6.57A32.66,32.66,0,0,0,19.65,86.89c7.41,5.59,16.74,5.34,23.48-1.19A24.32,24.32,0,0,0,49.39,75a16.86,16.86,0,0,0,7.67,10.22c6.21,3.82,13.61,3.5,20.57,2.72C80.5,87.64,83,85.74,83,82.63,83,80,80.52,77,77.63,77.29Z"/><path class="cls-1" d="M135.9,41.19c-9.84-9.75-25.9-8.35-35.29,1.26a30.65,30.65,0,0,0-6.52,10c-.44-1.1-.87-2.2-1.31-3.31-1.07-2.67-3.57-4.55-6.57-3.72-2.55.7-4.8,3.87-3.73,6.56l12.28,30.9c1.06,2.68,3.57,4.55,6.57,3.73,2.57-.71,4.77-3.87,3.73-6.57-3.59-9.28-4.79-20.65,2-28.85,5.2-6.27,15-8.67,21.28-2.46C133.23,53.59,140.79,46,135.9,41.19Z"/><path class="cls-1" d="M142.36,62.16c-1.52-4.51-4.87-8.31-9.7-9.2-.26-.05-.52-.08-.79-.11a4.74,4.74,0,0,0-3.3-2.48c-11.45-2.73-18.78,9.78-17.77,19.79s9.58,20.3,20.61,16.53C141.05,83.39,145.51,71.5,142.36,62.16Zm-14,14.32c-4,1.55-6.53-3.54-6.91-6.78a11.6,11.6,0,0,1-.07-1.77,5.28,5.28,0,0,0,4-1.37c1.2-1.06,3.55-3.49,5.39-3.14,1,.19,1.41,1.65,1.66,2.63C133.29,69.61,132.12,75,128.33,76.48Z"/><path class="cls-1" d="M157.49,18.36c-.28-2.87-2.25-5.34-5.34-5.34-2.67,0-5.62,2.45-5.34,5.34q2.92,30,3.52,60.18c.14,6.87,10.82,6.89,10.68,0Q160.41,48.39,157.49,18.36Z"/><path class="cls-1" d="M215.51,100.63c-2.21-2.21-5.31-1.83-7.55,0q-8.25,6.74-17,12.8-4.44,3.07-9,6l-.49.31q-1-51.19-3-102.36c-.27-6.85-11-6.89-10.68,0q2,52.07,3.05,104.16c-5.34-2.29-10.45-5.06-15.64-7.72L134.07,103c-6.1-3.14-11.51,6.07-5.39,9.22L151.76,124c3.68,1.88,7.33,3.83,11.05,5.63s7.88,4,12,4.31,7.44-2.15,10.78-4.24,6.64-4.26,9.89-6.5c6.88-4.73,13.54-9.77,20-15C217.75,106.36,217.41,102.53,215.51,100.63Z"/><path class="cls-1" d="M272.74,44.63c-1.07-5.06-3.64-9.89-9-11.29C258,31.85,253,35,248.8,38.56a4.55,4.55,0,0,0-1.53,3.24,39.32,39.32,0,0,0-5.37,9A37,37,0,0,0,231.47,36.3a46.17,46.17,0,0,0-28.08-10.86c-1.38-.27-2.76-.48-4.16-.64a4.23,4.23,0,0,0-3,.86c-.55-2.87-2.55-5.19-5.51-5.19s-5.94,2.77-5.64,6q1.19,13.05,2.36,26.08L188.6,65l.57,6.2a6.5,6.5,0,0,0-.95,3.26,5.91,5.91,0,0,0,.87,3.19c-1.21,5.23,5.16,10.67,9.38,5.84A9,9,0,0,0,200,81.06a71.77,71.77,0,0,0,25.1-2.9c5.7-1.8,11.27-5.8,13.82-11.31a7.22,7.22,0,0,0,.82-.29A23.2,23.2,0,0,0,250.65,83c3.76,2.19,8.61,3.4,12.9,2.21,5.15-1.43,7.21-5.85,8.47-10.63A64.92,64.92,0,0,0,272.74,44.63ZM200.22,68.8q-.58-6.55-1.18-13.1-.89-9.66-1.75-19.3a7,7,0,0,0,1.94.49c11.54,1.29,24.25,9.38,29.24,21C232.79,67.93,211.71,69.09,200.22,68.8Zm62.42-1.08a47.49,47.49,0,0,1-1.48,6,5.45,5.45,0,0,1-.4,1.15l-.43.13a2.6,2.6,0,0,0-.56,0c-6.07-.09-9.63-7-9.69-12.3-.07-7.6,4.55-13.9,9.85-18.89l.3-.1c1.15-.29.89-.22,1.4.77,1.63,3.13,1.69,7.87,1.82,11.32A52.52,52.52,0,0,1,262.64,67.72Z"/><path class="cls-1" d="M313,45.33a4.45,4.45,0,0,0-1.77,2.73l-1.65,8.88q-.85,3.51-1.66,7a89.28,89.28,0,0,0-3.47-12.61c-.87-2.22-2.62-3.92-5.15-3.92-2.16,0-4.78,1.64-5.15,3.92q-1,6.29-2,12.56-2.64-9.66-4.8-19.45c-1.47-6.71-11.77-3.87-10.29,2.83a399.17,399.17,0,0,0,11,39.91,5.43,5.43,0,0,0,7.84,3.19c2.91-1.4,3.51-4.32,4-7.18l.9-5.66a36.29,36.29,0,0,0,3.91,8c1.7,2.56,5.68,3.72,8.09,1.37a4.61,4.61,0,0,0,1.61-2.14c2.56-4.33,2.76-10.08,3.66-14.89q.93-5.06,1.87-10.09,1.15-4.78,2.4-9.54C323.77,44.42,316.09,41.52,313,45.33Z"/><path class="cls-1" d="M352.85,28.49l-.54,21.66L352.07,60c-1-1.63-1.88-3.33-2.76-5q-5.07-9.32-9.7-18.87c-1.25-2.59-4.95-3.29-7.3-1.91h0c-3-.68-6.71,1-6.8,5-.34,14.59-1.77,29.82,2.37,44,1.91,6.59,12.22,3.79,10.29-2.83-.33-1.14-.61-2.28-.86-3.43l.18-6.12a5.46,5.46,0,0,0-.34-2.09l-.25-14.36c1.37,2.61,2.76,5.22,4.18,7.8,3.16,5.7,6.82,11.14,12.52,14.55a5.44,5.44,0,0,0,7.31-1.91c2-3.24,1.65-7.19,1.74-10.85l.29-11.66.6-23.88C363.7,21.62,353,21.62,352.85,28.49Z"/></g></g></svg>