<svg xmlns="http://www.w3.org/2000/svg" viewBox="0 0 266.5 266.5"><defs><style>.cls-1{fill:#fefefe;}</style></defs><g id="Layer_2" data-name="Layer 2"><g id="Layer_2-2" data-name="Layer 2"><path class="cls-1" d="M168.27,4.46C67.67-21.17-21.17,67.67,4.46,168.27c10.41,40.87,52.9,83.36,93.77,93.77C198.83,287.67,287.67,198.83,262,98.23,251.63,57.36,209.14,14.87,168.27,4.46ZM132.64,259.23c-68,0-123.21-55.34-123.21-123.6S64.59,12,132.64,12s123.22,55.34,123.22,123.6S200.69,259.23,132.64,259.23Z"/><path class="cls-1" d="M116.71,175.49c2.55-9.4-5.45-15.2-13.68-16.85a58.51,58.51,0,0,0-16.1-.63c4.17-3.78,6.65-8,3.51-11.81-3.34-4.08-10.44-3-15-2.75A96.38,96.38,0,0,0,61,145.36a5.18,5.18,0,0,0-.66.14q-2.67.57-5.33,1.29c-5.59,1.5-3.21,10.19,2.39,8.68.55-.15,1.1-.28,1.65-.42q2.87,5.17,5.58,10.43c-.63,1.91.22,3.42,1.66,3.26q6.61,13.11,12.3,26.69-7.87,4.35-16,8.19c-5.23,2.47-.67,10.24,4.55,7.77s10.28-5,15.29-7.79c3.1,2.86,9.33.5,7.49-4.16a.36.36,0,0,1,0-.09q3.23-1.9,6.4-3.91C103.84,190.6,114.16,184.91,116.71,175.49Zm-46.1-17.87c-.68-1.31-1.38-2.62-2.08-3.92a.43.43,0,0,1,.32-.63c1-.13,1.9-.25,2.86-.34q3.24-.31,6.5-.39h1.31c-1.45,1-3,1.85-3.88,2.46l-4.41,3A.44.44,0,0,1,70.61,157.62Zm15.44,32.61q-4.5-10.64-9.56-21a.73.73,0,0,1,.56-1,119.26,119.26,0,0,1,17.66-1.37c3.47.05,8,.15,11,2.09,4.4,2.82,1.47,6.79-1.35,9.59C99.5,183.35,93.07,187,87,190.56A.69.69,0,0,1,86.05,190.23Z"/><path class="cls-1" d="M160.25,118.64c-.55.46-1.1.92-1.64,1.4-3.67,3.29.38,8.36,4.32,7.45l7.22,17.85-1.3.56c-5.29,2.3-.72,10,4.55,7.77l.1,0c0,5.44,4.29,10.59,6.43,15.88s11.72,6.28,9.55.91l-7.87-20.59a56.51,56.51,0,0,0,14.34-10c5.67-5.63,11.21-14.57,7.76-22.72-3.28-7.77-12.44-9.26-20-8.49a43.23,43.23,0,0,0-20,7.36A4.22,4.22,0,0,0,160.25,118.64Zm21.47-.65c5.15-1,15.52-1.61,13.75,6.45-1.71,7.84-9.49,13.23-17.19,17.14l-7.79-19.25A34.84,34.84,0,0,1,181.72,118Z"/><path class="cls-1" d="M215.23,211.13C189.35,194,167,172.67,144.55,151.26c-.82-.78-1.64-1.58-2.46-2.37,7.81-19.89,13.31-38.12,20.17-58.36a138.18,138.18,0,0,0,7.22-21.65l.18-.61a4.54,4.54,0,0,0,.92-1.85,6.69,6.69,0,0,0-3-7.36,5,5,0,0,0-5.55.39,4.88,4.88,0,0,0-1.69,2.44c-.11.18-.23.36-.33.55-1.14,2.18-1.15,5.21-1.53,7.61v0q-5.66,17.49-11.77,34.8c-.07.16-.13.32-.2.49-4.82,12.56-8.75,22.43-13.25,35.11l-.06,0C113.68,121.44,94,104.55,74.78,85.18c-4.09-4.12-10.45,2.24-6.37,6.36,20.13,20.29,40,40.92,60.51,60.81-.34.85-.67,1.71-1,2.56a4.5,4.5,0,0,0-.31,2.54q-13.69,39.81-25.22,80.31c-1.59,5.58,7.09,8,8.68,2.39q11.58-40.65,25.32-80.65l1.36,1.3a542,542,0,0,0,72.94,58.1C215.52,222.11,220,214.32,215.23,211.13Z"/><path class="cls-1" d="M92,87.61a4.51,4.51,0,0,0,3-.26c.73.67,1.42,1.28,2,1.83q4.47,4.56,9.09,9,9.9,9.48,20.41,18.27c2.78,2.34,7.85,1,7.68-3.18-.4-10,2.92-20.24,5.75-29.73S146,65,149.37,55.8c.74-2-.55-4-2.07-5.08a410.88,410.88,0,0,0-39.15-25.37l-.27-.15-.24-.14c-4-2.25-7.61,2.06-6.55,5.41Q98.54,43.27,95.43,56q-1.61,6.52-3.38,13c-.76,2.79-2.9,7.23-2.77,10.44L89,81.58A4.63,4.63,0,0,0,92,87.61ZM109.08,36.3q15,8.87,29.19,19a2.19,2.19,0,0,1,.79,2.56c-3,8.29-5.94,16.63-8.41,25.11-2,6.75-4.07,13.83-5,20.94q-13.25-11.64-25.47-24.33l-.82-3.26Q104.91,56.46,109.08,36.3Z"/><path class="cls-1" d="M189.48,156.78a1.5,1.5,0,0,0,0-3A1.5,1.5,0,0,0,189.48,156.78Z"/></g></g></svg>