<svg xmlns="http://www.w3.org/2000/svg" viewBox="0 0 1025.75 311.74"><defs><style>.cls-1{fill:#fff;}</style></defs><g id="Layer_2" data-name="Layer 2"><g id="Layer_2-2" data-name="Layer 2"><path class="cls-1" d="M38.05,211.41a74.36,74.36,0,0,0,30.09-9.15,65.12,65.12,0,0,0,22.93-21.81q-.1,10.86-.22,21.72a12.64,12.64,0,0,0,1.1,5.44c.51,6,6,12.32,12.45,11.63a200.51,200.51,0,0,1,33.86-.77c6.75.42,12.5-6,12.5-12.5,0-7.11-5.73-12.08-12.5-12.5a200.27,200.27,0,0,0-22.32-.13l.49-48.06,15.06-.6c6.53-.27,12.81-5.57,12.5-12.5-.29-6.55-5.5-12.78-12.5-12.5l-14.8.59q.19-19.55.4-39.09c1.74-.28,3.47-.56,5.21-.82,2.42-.36,5-.94,7.6-1.23a13.44,13.44,0,0,0,8.6.81c7.19-2,9.69-8.67,8.73-15.38-.7-4.94-5.17-8.83-9.83-10.11-4.35-1.2-9.08,0-13.42.62-2.83.38-5.64.81-8.46,1.23-5.66-9-23.11-6.81-23.25,6.64q-.36,36.42-.74,72.85c-5.93-7.73-14.87-13.48-24.06-17A76,76,0,0,0,58.72,116c11.19-9.7,22.73-22.42,25.94-37.21,8.07-37.14-36.72-56.19-66.83-54.1-6.73.47-12.5,5.41-12.5,12.5A13.28,13.28,0,0,0,12,48.28q4,32.4,6,65c-2.89,1.36-5.82,2.6-8.8,3.67-6.34,2.3-10.62,8.51-8.73,15.38a13.29,13.29,0,0,0,10.81,9.23,12.8,12.8,0,0,0,5.38-.41c.89-.25,1.78-.48,2.68-.7q.83,23.08.66,46.2l-1.82-.23c-6.67-1-13.43,1.66-15.38,8.73-1.62,5.88,2,14.38,8.73,15.37a121.4,121.4,0,0,0,15.55,1.31A14.22,14.22,0,0,0,38.05,211.41ZM68.36,147.3c3.53,3,5.78,5.63,5.28,9.9-1.25,10.71-10,19-18.78,23.84A45.51,45.51,0,0,1,45,185q.13-23.1-.73-46.19a66.93,66.93,0,0,1,11.49,2.34C60.14,142.43,65.23,144.67,68.36,147.3ZM50.59,56.9c7.77,4.77,12.37,11,8.62,19.79-3.4,8-10.41,15.12-17.3,21q-1.77-23.2-4.57-46.34A48.51,48.51,0,0,1,50.59,56.9Z"/><path class="cls-1" d="M175.21,140.8q7.71,21.88,15.7,43.67c2.13,5.82,7.25,9.92,13.71,8.95,6-.9,11-5.94,10.84-12.27L212.7,52.41c-.35-16.06-25.35-16.12-25,0q.54,25.7,1.1,51.4-6.95-20.3-13.63-40.68c-2.11-6.42-8.64-10.58-15.38-8.73a12.94,12.94,0,0,0-9.23,12.25,11.52,11.52,0,0,0-2.27,7.58q1.88,65.1,3.77,130.2c.46,16,25.46,16.12,25,0Q176.13,172.62,175.21,140.8Z"/><path class="cls-1" d="M224.81,42.17c1,6.48,9.44,10.65,15.37,8.73,7-2.27,9.84-8.43,8.73-15.37q-1.5-9.41-3-18.82c-1-6.47-9.44-10.65-15.37-8.73-7,2.27-9.84,8.44-8.73,15.38Q223.3,32.77,224.81,42.17Z"/><path class="cls-1" d="M250.56,76.73c-.62-6.72-5.3-12.5-12.5-12.5-6.28,0-13.13,5.74-12.5,12.5q2.38,25.88,4.78,51.74c1.57,17,3.5,34.06,2,51.09-1.07,12.58-4.89,26.25-12.8,36.73-3.06,4.06-7.36,8.42-11.67,9.89a6.48,6.48,0,0,1-3.43.48c1.72.09-1.5-1-.23-.22a13,13,0,0,1-1.23-.84c.28-6.06-2.43-11.82-8.89-13.59-5.86-1.61-14.42,2-15.38,8.73-1.23,8.67.6,16.56,7,22.89a28,28,0,0,0,21,8c16.05-1.09,28.45-13,36.64-26,17.18-27.22,15.3-60.49,12.47-91.15Q253.24,105.58,250.56,76.73Z"/><path class="cls-1" d="M323.63,209.17c6.3,0,13.11-5.74,12.5-12.5A530.41,530.41,0,0,0,308.27,67.23c-1.84-5.24-6.27-9.17-12-9.17-5.23,0-11,3.84-12.05,9.17a1011,1011,0,0,0-18.48,135c-.47,6.74,6.07,12.5,12.5,12.5,7.15,0,12-5.74,12.5-12.5q1.51-22.14,4.08-44.16a12.36,12.36,0,0,0,7.88.48l3.36-1q3.33,19.43,5.12,39.1C311.73,203.39,316.45,209.17,323.63,209.17Zm-25.77-75.28c.44-3.09.89-6.17,1.35-9.26.67,2.77,1.31,5.54,1.94,8.32Z"/><path class="cls-1" d="M364.39,197.67q-.66-44.49-4.08-88.85c.42.64.83,1.29,1.25,1.92,7.45,11.29,14.95,24.84,28.71,29,3.92,1.18,9.25.08,12.05-3.09q2.71,26.27,3.5,52.73c.48,16,25.48,16.12,25,0A745.77,745.77,0,0,0,412.64,46.26c-2.71-12-21.31-11.85-24.1,0C385.3,60,384.7,74.09,385.17,88.15c.15,4.65.42,9.3.64,13.95q-2.91-4.3-5.72-8.67Q370,77.68,361.4,61.08c-3.12-6-11.48-7.77-17.1-4.48a12,12,0,0,0-5.41,6.67c-4,2.16-7.1,6.31-6.64,10.93q6.22,61.55,7.14,123.47C339.63,213.74,364.63,213.79,364.39,197.67Z"/><path class="cls-1" d="M450.78,51.18c-6.53,0-12.81,5.72-12.5,12.5q3,65.47,6,131c.31,6.74,5.52,12.5,12.5,12.5,6.53,0,12.81-5.73,12.5-12.5q-3-65.49-6-131C463,56.93,457.76,51.18,450.78,51.18Z"/><path class="cls-1" d="M450.61,31.78a12.56,12.56,0,0,0,8.83-3.66,13,13,0,0,0,3.67-8.84V12.51a12.89,12.89,0,0,0-3.67-8.84,12.49,12.49,0,0,0-17.67,0,13,13,0,0,0-3.66,8.84v6.77a12.88,12.88,0,0,0,3.66,8.84A12.67,12.67,0,0,0,450.61,31.78Z"/><path class="cls-1" d="M524.7,182c4.67,13.13,23.95,11.2,24.55-3.32l5.07-122.57c.28-6.75-6-12.5-12.5-12.5-7,0-12.22,5.73-12.5,12.5q-1.14,27.38-2.27,54.76-6.72-21.09-13-42.32a11.65,11.65,0,0,0-11.23-8.76,12.06,12.06,0,0,0-8.38-3.37c-6.54,0-12.8,5.72-12.5,12.5q2.52,56.82,5.05,113.65c.3,6.75,5.53,12.5,12.5,12.5,6.54,0,12.8-5.72,12.5-12.5q-1-21.53-1.91-43Q517.17,160.86,524.7,182Z"/><path class="cls-1" d="M708.34,157.05c-1.69-15-4-43.1-25.11-42.43-.2,0-.38,0-.58,0,8.74-6.64,16-14.9,20-25.41,8.76-22.92-6-45.41-24.94-57.5-18.48-11.83-41-18.14-62.5-21.34-25.89-3.86-52-3.83-78.05-2.89A12.74,12.74,0,0,0,524.66,20c0,6.58,5.72,12.74,12.5,12.5,11.06-.4,22.28-.72,33.5-.6q3.78,46.77,3,93.72a10.07,10.07,0,0,0-.1,1.34c0,.39,0,.78.06,1.16q-.6,31.4-3.24,62.72c-.57,6.74,6.15,12.5,12.5,12.5,7.24,0,11.93-5.74,12.5-12.5q2.13-25.25,2.93-50.57a140.25,140.25,0,0,0,54.37-9.57c3.29-1.29,6.62-2.7,9.92-4.24-1,1-1.85,2-2.69,3.06a93.4,93.4,0,0,0-12.87,20.37C639.52,166,635.49,183.54,626.61,199c-8,14,13.55,26.58,21.59,12.62,4.82-8.37,8.35-17.31,11.68-26.34a10.16,10.16,0,0,0,4.16,1.89l11.29,2.26a14.8,14.8,0,0,0,8.63-.9,160.33,160.33,0,0,1-2.74,20.21c-1.35,6.61,1.9,13.51,8.73,15.38,6.17,1.7,14-2.08,15.37-8.73A187.45,187.45,0,0,0,708.34,157.05Zm-60.57-51.14a119.28,119.28,0,0,1-49,9.36q.24-41.13-3-82.21c18.45,1.61,36.62,5.14,53.84,12.26,12.91,5.34,32.54,16.09,30.56,31.84-.76,6.13-5.54,11.81-11,16.44C663.2,98.56,655.15,102.75,647.77,105.91ZM682,165.28,670.68,163a13.76,13.76,0,0,0-2.13-.25,99,99,0,0,1,4.59-8.86,58.93,58.93,0,0,1,4.46-6.69,31.16,31.16,0,0,1,3.49-3.5A145.87,145.87,0,0,1,684,164.64c0,.44,0,.88.07,1.32A10.3,10.3,0,0,0,682,165.28Z"/><path class="cls-1" d="M799.84,198.09c-2.34-8.75-2-17.72-1.87-26.7q.24-14.74.56-29.49.65-29.5,1.62-59c.22-6.75-5.91-12.5-12.5-12.5-7.23,0-11.95,5.75-12.5,12.5-1.58,19.28-3.13,38.6-6.91,57.59a217.67,217.67,0,0,1-7,26.83,71.35,71.35,0,0,1-4,10.29c-.43.82-.88,1.62-1.37,2.41q-1.35,1.84-.39.81c-.37.49-2.77,2.58-2.56,2.57l-.56.31c-1.15.34-1.36.37-.61.1.69.08-1.57-.46-2.11-.77a11.53,11.53,0,0,1-4.63-5.69c-3.3-7.33-4.07-16.47-5-24.36a225.11,225.11,0,0,1,1.11-59.69c1-6.66-1.71-13.44-8.73-15.37-5.94-1.63-14.32,2-15.38,8.73a251.52,251.52,0,0,0-2.79,57.75c1.3,17.58,2.48,39.34,14.5,53.36,5.91,6.89,15.27,11.52,24.44,11,8.64-.52,15.66-5.09,21-11.52.43,2.53,1,5,1.63,7.5C779.9,220.25,804,213.67,799.84,198.09Z"/><path class="cls-1" d="M847.88,213.56c15.4-4.53,8.85-28.66-6.65-24.11-1.48.44-3,.85-4.49,1.17-.52.12-1.06.22-1.59.32L834,191c-.26,0-1.43,0-2.09,0,0-.55-.11-1.24-.11-1.84,0-4.06.34-8.15.59-12.2,1-16.42,2.94-32.76,5-49.08,4.2-32.61,9.12-65.19,9.58-98.13.23-16.1-24.77-16.1-25,0-.52,37.47-6.84,74.45-11.26,111.59-1.06,9-2,17.94-2.74,26.94-.75,9.28-2.4,19.71-.5,28.93C811.54,216.58,832.24,218.15,847.88,213.56Z"/><path class="cls-1" d="M928.32,205.24c-1.41-19.37-.3-39,0-58.38s.57-39,.85-58.49a12.68,12.68,0,0,0-12.5-12.5c-7.27,0-11.88,5.75-12.5,12.5q-2.7,29.35-5.39,58.71c-.88,9.51-1.25,19.25-2.69,28.7-.48,3.13-1.1,6.61-2.84,9.3a9.26,9.26,0,0,1-2.35,2.63l-.66.48-.84,0q.64.4,0,0c-.64,0-.65,0,0,0l-.93-.55c.5.54-1.6-1.7-1.85-2-1.58-2.1-3-6-3.91-8.93-2.36-8-2.78-16.18-2.92-24.45a259.94,259.94,0,0,1,5.21-56.62c1.36-6.6-1.91-13.5-8.73-15.37-6.18-1.7-14,2.08-15.37,8.73a293.48,293.48,0,0,0-6.14,56.45c-.14,17.22.5,36.41,9.61,51.61,4.41,7.36,11.23,13.8,19.86,15.58A27.3,27.3,0,0,0,904,208.82c1.66,5.07,6,8.92,11.8,8.92C922.2,217.74,928.81,212,928.32,205.24Z"/><path class="cls-1" d="M889.38,188.21l0,0h0l0,0Z"/><path class="cls-1" d="M979.59,154.05c4.81,4.09,9.81,8.62,12.71,14.25a9.8,9.8,0,0,1,1.44,5.73c0-.4-.47,1.56-.69,2.24a17.72,17.72,0,0,0-1.27,2.14c-7,9.68-22.12,9.69-32.19,3.31-5.7-3.61-13.78-1.19-17.1,4.49a12.7,12.7,0,0,0,4.49,17.1c13.28,8.42,30.68,10.37,45.35,4.5s27.53-19.72,26.37-36.36c-1.14-16.26-13.58-29-25.74-38.58-5.66-4.44-11.58-8.57-17.27-12.94a78.15,78.15,0,0,1-7.89-6.76c-1.61-1.61-3.11-3.76-3.17-4.78,0-.27.31-1.35.24-1.22a13,13,0,0,1,2.43-3.47,31.91,31.91,0,0,1,8.1-6.11,68.1,68.1,0,0,1,23.31-8.13c6.66-1.13,10.39-9.34,8.73-15.37-1.94-7.06-8.7-9.87-15.38-8.73-14.68,2.48-29.77,8.85-40.79,19-5.75,5.33-10.18,12.35-11.27,20.19-1.25,9,2.16,17,7.93,23.88C956.66,138.82,969.4,145.38,979.59,154.05Z"/><path class="cls-1" d="M105.26,291.5c-3,.32-6.85,1.15-8.71-1.68-1.56-2.37-.32-5.77.39-8.37,1.16-4.33,3.16-11.84,7.07-14.5,4.24-2.87.24-9.81-4-6.9-5,3.4-8.29,10.09-10.2,16.69a136.36,136.36,0,0,1,.16-15c.35-5.14-7.66-5.12-8,0q-.39,5.89-.28,11.79l-2.94-9.66a4.07,4.07,0,0,0-6.4-2,3.86,3.86,0,0,0-3.56,3.81c-.1,3.45-.1,6.88,0,10.31a39.25,39.25,0,0,0-1.42-6.24c-1.12-3.5-3-6.92-6.06-8.95a4.3,4.3,0,0,0-.41-1.6c-2.12-4.49-8-4.64-11.12-1.08-3.5,4-4.15,11-4.21,16.1a40.4,40.4,0,0,0,1,9.42c-1.66-2.86-7-3.25-8.43.93A23.07,23.07,0,0,1,34,292.23c-.29.35-2.89,3.4-3.4,3.29a17.3,17.3,0,0,1-.9-2.1c-2.3-5.83-2.37-12.57-1.85-18.72.48-5.63,1.52-11.7,4-16.82.74-1.53,3.93-7.43,5.61-6.17,1.87,1.4,1,7.75.76,9.68-.68,5.74,8.32,5.69,9,0,1.09-9-3.31-24.6-15.34-17.42-9.29,5.55-11.82,19.17-12.89,29-.94,8.63-1.45,25.1,7.18,30.51,9.53,6,18.22-9.39,20.56-16.45a4.59,4.59,0,0,0,.24-1.36,42.36,42.36,0,0,0,2,5.69c1.92,4.32,5.62,12,11.57,10.6,5.34-1.24,7.29-9.16,8-13.75a39.34,39.34,0,0,0,.42-3.93q.48,7.42,1.5,14.84c.7,5.08,8.4,2.92,7.71-2.13-.48-3.52-.84-7.05-1.11-10.58.3,1,.6,2,.91,3,1.22,3.91,3.45,12.42,9.09,11.57,2.66-.4,3.77-2.3,4.12-4.65,3.33,2.88,8.58,3.8,13.93,3.23C110.33,299,110.39,291,105.26,291.5Zm-45-2.21a21.87,21.87,0,0,1-1.73,4.4c-.52,1-.53,1,0-.11.61-.78.46-1.49-.46-2.15-1.86-4.82-4.08-8.74-4.47-14.07a33.64,33.64,0,0,1,.3-7.7,4.12,4.12,0,0,0,.76-2l2.2-.18a5.51,5.51,0,0,1,1.8,2.16A14.59,14.59,0,0,1,60,273.27a33.68,33.68,0,0,1,1.19,8A27.55,27.55,0,0,1,60.29,289.29Z"/><path class="cls-1" d="M123.33,280.56A22.17,22.17,0,0,1,118.1,284c.07-.54.14-1.08.21-1.6.25-2,.57-3.9.92-5.84,2.18-.88,4.33-1.85,6.42-2.92a4.05,4.05,0,0,0,1.44-5.47,4.1,4.1,0,0,0-5.48-1.44l-.46.24c0-.07,0-.15,0-.22,1.08-5-6.63-7.16-7.71-2.12q-.72,3.28-1.36,6.58a3.84,3.84,0,0,0-1,3.78,4.07,4.07,0,0,0,.22.58c-.29,1.74-.57,3.48-.81,5.23-.67,4.94-1.76,10.64-.08,15.48,3.11,8.93,12.33,7.74,18.33,2.64,3.92-3.34-1.76-9-5.66-5.65-2.33,2-4.49,1.82-5.22-.61a31.37,31.37,0,0,0,11.1-6.44C132.84,282.79,127.17,277.15,123.33,280.56Z"/><path class="cls-1" d="M167.27,253.69l-2.05.52c0-1.54-.06-3.08-.1-4.63-.14-5.13-8.14-5.15-8,0,.06,2.22.1,4.44.15,6.65l-4.65,1.18c-2.8.72-3.36,3.46-2.43,5.5-.25-.08-.5-.16-.76-.22a10.34,10.34,0,0,0-6.08.36c-2.4-1.87-6.76-.92-6.48,2.91l.06.93-.94.76c-2.61,2.17-1,5.33,1.46,6.32.17,2.4.35,4.79.52,7.19-3.24,1.11-3,6.53.56,7.62l1.12,15.5a4.29,4.29,0,0,0,0,1.24c.1.73.21,1.45.32,2.18.65,4.44,8.18,3.42,7.85-1.06q-.67-9.37-1.36-18.75c6.44-2.44,11.29-8.68,10.45-16a11.22,11.22,0,0,0-3-6.6,5.2,5.2,0,0,0,.84-.13l2.68-.68c0,2.45.09,4.91.12,7.37.07,7.24.9,15.09-.48,22.22-1,5,6.73,7.18,7.71,2.13,1.42-7.33.85-15,.79-22.42,0-3.77-.1-7.55-.16-11.33l4-1C174.38,260.14,172.27,252.42,167.27,253.69Zm-18.4,21a7.36,7.36,0,0,1-3,4.63l-.63-8.58a2.94,2.94,0,0,1,2.58-.21C149.22,271.22,149.13,273.39,148.87,274.67Z"/><path class="cls-1" d="M193,257c-11.72-9.73-15.41,29.27-16,34-.68,5.08,7.33,5,8,0,.47-3.57,1-7.13,1.56-10.67.13,0,.26,0,.4,0l3.48-.25a4.65,4.65,0,0,0,1.36-.32c.78,4.09,2,11.11.33,12.48-4,3.22,1.67,8.84,5.65,5.66,5.28-4.22,2.4-14.45,1.66-20C198.62,271.9,198.25,261.37,193,257Zm-2.6,15.11-2.45.18a30.4,30.4,0,0,1,1.44-5.84,32.44,32.44,0,0,1,1.24,5.67A1.77,1.77,0,0,0,190.43,272.15Z"/><path class="cls-1" d="M218.25,265.17a4,4,0,0,0,1.44-5.47,4.09,4.09,0,0,0-5.48-1.43A29.15,29.15,0,0,0,204.5,266a5.48,5.48,0,0,0-1.8,6.59q.45,9,.8,18a3.6,3.6,0,0,0-.27,2.87,4.59,4.59,0,0,0,2.35,3c2.57,1.36,6.13-.3,6-3.46q-.37-10.95-1-21.88A22.33,22.33,0,0,1,218.25,265.17Z"/><path class="cls-1" d="M232.81,262.36l-.85.24-.12-7.06c-.09-5.14-8.09-5.16-8,0q.07,4.77.16,9.55c-1.29.47-2.58,1-3.85,1.49-2,.84-3.42,2.65-2.8,4.92.52,1.88,2.92,3.64,4.92,2.8.62-.26,1.25-.5,1.87-.74q.24,14.58.49,29.16c.08,5.14,8.08,5.15,8,0l-.54-31.87c.95-.27,1.89-.53,2.85-.77C239.93,268.82,237.81,261.1,232.81,262.36Z"/><path class="cls-1" d="M272.07,276.6l-.05-.07a5.35,5.35,0,0,0-5.26-1.71,5.43,5.43,0,0,0-3.63,3.88,7,7,0,0,0,2,6.81l.1.17a4.71,4.71,0,0,0,5.23,2,6.39,6.39,0,0,0,1.65-11.11Z"/><path class="cls-1" d="M292.39,289.49c-.7-4.92-.6-10-.81-14.92q-.39-9.52-.8-19c-.22-5.13-8.22-5.15-8,0q.44,10.47.89,20.93c.26,6.23.19,12.57,1.64,18.67.86,3.59,5.46,3.62,7.32,1a6.21,6.21,0,0,0,1.07-3.55A3.37,3.37,0,0,0,292.39,289.49Z"/><path class="cls-1" d="M305.87,289c-3.25.07-4.5-1.32-4.48-4.6,0-2.79.06-5.59.09-8.38l.18-16.76c0-5.15-8-5.16-8,0-.1,9.11-.83,18.49-.27,27.6.46,7.37,5.51,10.29,12.48,10.14C311,296.89,311,288.89,305.87,289Z"/><path class="cls-1" d="M324.49,288.55c-2.14.14-4.26,1.27-4.48-1.23s1-5.94,1.46-8.39c1-5.48,2.18-10.93,3.43-16.36,1.15-5-6.56-7.15-7.72-2.13-2,8.89-4.49,18.16-5.25,27.27-.26,3,.33,6,2.89,7.9,3,2.25,6.3,1.17,9.67.94C329.6,296.21,329.64,288.21,324.49,288.55Z"/><path class="cls-1" d="M342.21,261.31c-1.07,5.74-.78,12-2.69,17.56-.17-.79-.33-1.51-.36-1.87a74.59,74.59,0,0,1,0-10.78c.34-5.14-7.67-5.12-8,0-.37,5.67-1.89,26.11,8.93,23.69a7.78,7.78,0,0,0,3.7-2c0,.54,0,1.07.05,1.6.21,5.13,8.21,5.16,8,0-.38-9.33,0-19.09-1.95-28.25C349.11,257.56,342.93,257.43,342.21,261.31Z"/><path class="cls-1" d="M370.22,269.9c-.21-.16-.63-.43-1.17-.75,4.06.21,5.48-6.42,1-7.92-4.91-1.64-17.68.73-13.22,8.52,1.8,3.12,6.67,4.81,9.34,7.12,1.58,1.37,4.78,3.71,4.34,5.92-.25,1.24-4.3,3.45-4.65,1.73-1-5-8.75-2.91-7.72,2.13,1.93,9.43,15.18,7.14,19.46.82,2.85-4.2,1-8.49-1.85-12.12A32.1,32.1,0,0,0,370.22,269.9Z"/><path class="cls-1" d="M425.42,273.1a3.84,3.84,0,0,0-3.29-2.83c-1.36-4.18-2.93-8.27-4.67-12.31-.84-2-3.79-2.44-5.47-1.44a9.32,9.32,0,0,0-3.5,3.93,4.2,4.2,0,0,0-4.86-3.25,14.45,14.45,0,0,0-9.06,5.33,4.3,4.3,0,0,0-6.17,1.64c0-1.79-.07-3.59-.12-5.39l1,.05c5.14.34,5.12-7.66,0-8l-1.29-.06c-.5-4.81-8.15-4.74-8,.31v.12a44.71,44.71,0,0,0-6.71,1.48c-4.91,1.48-2.82,9.21,2.13,7.71a38.07,38.07,0,0,1,4.84-1.13q.34,13.67.2,27.32c-.06,5.15,7.94,5.15,8,0q.11-9.15,0-18.3a117.18,117.18,0,0,1,2,12.23c.07.79.17,1.58.29,2.34.69,4.41,8.28,3.43,7.85-1.06-.12-1.32-.27-2.63-.43-3.94-.3-5.64,1.19-11.77,7.57-12.93a4.29,4.29,0,0,0,1.22-.44c-.32,1.06-.6,2.14-.92,3.17-1.85,6.07-3.46,12.2-4.91,18.38-1.17,5,6.54,7.15,7.72,2.13.66-2.85,1.38-5.68,2.12-8.5a4.82,4.82,0,0,0,2.21.09l3.18-.58.33,1.29c.22.92.94,2.81,1.21,4.37-1.71,1.35-2.46,3.89-.42,5.82l1,1c1.72,1.61,5.16,1.62,6.29-.81,2-4.35.64-9.08-.62-13.56A4.3,4.3,0,0,0,425.42,273.1Zm-12.19-1.46c.15-.51.29-1,.45-1.53l.45,1.37Z"/><path class="cls-1" d="M446.21,261.35c5.08-.72,2.92-8.43-2.12-7.72-3.55.51-7,1.15-10.54,1.92-.12-1.24-.23-2.48-.36-3.72-.55-5.07-8.55-5.12-8,0,.2,1.89.38,3.78.56,5.68-4.07,1.37-3,7.24.68,7.75q.75,9.33,1.2,18.68a3.53,3.53,0,0,0-.24,3c.19.56.37,1.11.55,1.67,1.36,4.12,8.05,3.65,7.86-1.06q-.48-12-1.51-23.93Q440.2,262.22,446.21,261.35Z"/><path class="cls-1" d="M450.42,269.2c.09-5.15-7.91-5.15-8,0q-.17,8.51.2,17c.22,5.13,7.85,5.16,8,0l0-.85a4.46,4.46,0,0,0-.08-1Q450.28,276.77,450.42,269.2Z"/><path class="cls-1" d="M458.05,264.28a3.84,3.84,0,0,0-1,5.81,18.48,18.48,0,0,0-3.1,12.85c1.33,8.95,10.9,13.72,18.58,8.56,6.66-4.47,10.66-16.22,7.66-23.75C476.28,258.05,465.24,260.06,458.05,264.28Zm11.86,18.66c-3.69,4.93-9,2-8.1-3.74.62-3.91,3.39-7.84,7.24-9a3.87,3.87,0,0,0,2-1.3c1.07.49,1.85,1.54,2.1,3.48C473.55,275.66,471.82,280.4,469.91,282.94Z"/><path class="cls-1" d="M502.13,264.48l-.06,11.76c0,1.06,0,2.13,0,3.19-3.68-4.74-6.63-10.48-9.47-15.25a3.76,3.76,0,0,0-5-1.5c-2.07-.08-4,1.16-3.67,3.78.54,4,1.07,8,1.62,12,.5,3.55.52,7.53,2.57,10.59a4,4,0,0,0,7.45-2c0-.32,0-.63.07-.95a3.36,3.36,0,0,0-1.54-3.24,14.5,14.5,0,0,1-.36-1.9c.35.5.69,1,1.05,1.51,2.37,3.25,5.68,9.23,10.22,9.25,4.79,0,5-4.58,5.06-8.23l.09-19C510.16,259.33,502.16,259.33,502.13,264.48Z"/><path class="cls-1" d="M517.89,276a6.81,6.81,0,0,0,0,3.8,4.6,4.6,0,0,0,.75,2.1,5,5,0,0,0,.57.7,5.86,5.86,0,0,0,.68.8,4.54,4.54,0,0,0,5,1.09,4.47,4.47,0,0,0,2.38-2.32l.06-.09c.05-.1.07-.2.12-.3a6.17,6.17,0,0,0-.93-7.52C523.81,271.59,519.15,272.23,517.89,276Z"/><path class="cls-1" d="M572.77,268.47c5.14.34,5.12-7.66,0-8a56.5,56.5,0,0,0-6-.07l-1-10.54c-.48-5.08-8.49-5.13-8,0q.56,5.7,1.09,11.4c-1,.18-2,.37-3.08.61a1.39,1.39,0,0,0-.19.06,4.15,4.15,0,0,0-2.92-1.75c-7.82-1-18.8,5.53-12.76,14.09,3.11,4.41,7.86,7.46,10.69,12.06a12.5,12.5,0,0,1,1.74,3.57,7.56,7.56,0,0,1-1.54-.06,11.84,11.84,0,0,1-7.6-5.14c-2.9-4.21-9.84-.22-6.91,4a20.58,20.58,0,0,0,12.9,8.95c4.31.87,9.64-.05,10.92-5,1.34-5.16-2.44-10.76-5.6-14.44-1.89-2.21-4.07-4.15-6-6.27-1.36-1.44-2.45-1.78-1.19-3.07s3.79-1,5.4-.77a3.94,3.94,0,0,0,1.2,0,3.85,3.85,0,0,0,4,1.43c.57-.13,1.14-.25,1.71-.35l2.28,23.95a4.2,4.2,0,0,0,0,1.41l.29,1.48c.85,4.37,8.28,3.44,7.85-1.07l-2.53-26.63C569.29,268.32,571,268.35,572.77,268.47Z"/><path class="cls-1" d="M615.61,267.42c-.52-1.92-2.89-3.58-4.92-2.79A16.23,16.23,0,0,0,604,269.4c-2.6-.68-6,1.4-5.12,4.84.24,1,.46,1.93.68,2.89a15.55,15.55,0,0,0-3.31-3.55c-8.55-6.69-20.61-3.43-24.33,6.74a3.35,3.35,0,0,0,1.88,4.45,14.88,14.88,0,0,0-.23,1.49c-.45,5.05,1.87,9.9,6.8,11.71,4.68,1.71,9.72.24,14-1.89a13.07,13.07,0,0,0,7.23-8.75c.13.79.24,1.58.36,2.37a3.8,3.8,0,0,0,.65,4.47l.89.95c2.18,2.35,7.28.69,6.83-2.83q-.75-5.93-1.9-11.77a4,4,0,0,0,.21-1.38,7,7,0,0,1,4.13-6.8A4.11,4.11,0,0,0,615.61,267.42Zm-22.79,20.33c-1.92,1.81-7.9,4.33-10.32,2.4-3.58-2.86,2.46-12.24,5.56-8.93a3.56,3.56,0,0,0,4.94.44C594.48,283.55,594.82,285.86,592.82,287.75Z"/><path class="cls-1" d="M655.22,262.24c0-2-1.84-4.21-4-4-1.25.12-2.49.26-3.73.43l-.15-7.35c-.11-5.14-8.11-5.16-8,0l.18,8.73-1.53.33c-2.79.65-3.36,3.33-2.46,5.38a3.22,3.22,0,0,0-4.63,1.68c-1,2.29-2,4.59-2.93,6.9l-4.31-5.12c-1.39-1.65-4.22-1.43-5.66,0a4.1,4.1,0,0,0,0,5.66l6.57,7.78c-3.19,8-6.21,16-9,24.2-1.66,4.88,6.06,7,7.72,2.13q6.51-19,14.52-37.52a4.12,4.12,0,0,0-.06-3.51,3.86,3.86,0,0,0,1.94.19l.42,20.41c.11,5.14,8.11,5.16,8,0l-.45-21.89c1.18-.16,2.37-.32,3.56-.43A4.11,4.11,0,0,0,655.22,262.24Z"/><path class="cls-1" d="M694.41,270.69a200.08,200.08,0,0,1,0,25.33c-.17-2.62-3-5.17-6-3.47-4.14,2.33-2.77-2.2-2.5-4.91.34-3.53.75-7.05,1.18-10.56.85-7,1.82-14,2.79-21,.71-5-7-7.21-7.71-2.13-1.55,11.11-3.33,22.28-4.27,33.47-1.37,0-2.12-.53-2.2-2.62-.09-2.79.18-5.65.35-8.43q.57-9.2,1.92-18.31c.73-5-7-7.21-7.72-2.13-.54,3.72-1.08,7.49-1.52,11.27,0,0,0-.06,0-.1-.53-1.92-2.89-3.58-4.92-2.79l-4.2,1.62a4.51,4.51,0,0,0-6.12,3.49c0,.12,0,.25,0,.38a3.61,3.61,0,0,0-.22,1.8c-.36,3-.63,6-.78,9a4.16,4.16,0,0,0-.63,3.38,4.11,4.11,0,0,0,.48,1c-.09,2.94-.2,6.18,1.18,8.8,3.35,6.35,10,4.4,13.6-.35,3.09-4.13-3.85-8.12-6.91-4,.58-.77.63-2.47.54-4.26a13.85,13.85,0,0,0,5.26-5.53,4.09,4.09,0,0,0-1.43-5.48A4.19,4.19,0,0,0,661,274v0l5-1.93a4.68,4.68,0,0,0,2.52-2.2,121.59,121.59,0,0,0-.74,15c.14,6.89,4.1,10.83,10.66,10.59,1.86,5.57,7.36,7.82,14.08,4a3.62,3.62,0,0,0,1.89-2.48v0c-.35,5.14,7.65,5.12,8,0a200.86,200.86,0,0,0,.06-26.31C702.09,265.57,694.09,265.54,694.41,270.69Z"/><path class="cls-1" d="M702.75,252.74a4,4,0,0,0-1.84-2.39,4.09,4.09,0,0,0-3.08-.4,4,4,0,0,0-2.39,1.84,4.67,4.67,0,0,0-.41,3.08c.17,1.16.33,2.32.5,3.47a4,4,0,0,0,1.84,2.4,4.09,4.09,0,0,0,3.08.4,4,4,0,0,0,2.39-1.84,4.67,4.67,0,0,0,.4-3.08C703.08,255.06,702.91,253.9,702.75,252.74Z"/><path class="cls-1" d="M723.54,260.23a147.84,147.84,0,0,0-1.73,19.31c-1.86-4.47-3.49-9.05-5.59-13.34a3.29,3.29,0,0,0-3.45-2c-2.41-1.38-6.21-.3-6.07,3.27l1,25.07c.21,5.13,8.21,5.15,8,0-.12-2.74-.23-5.48-.35-8.22a59.8,59.8,0,0,0,8.09,14.13c2.13,2.62,7.14.51,6.83-2.83a136.12,136.12,0,0,1,.93-33.26C732,257.32,724.32,255.15,723.54,260.23Z"/><path class="cls-1" d="M748.3,282.86a3.54,3.54,0,0,0-2.48,1.86c.16-.45.34-.89.5-1.31a29.15,29.15,0,0,1,2.38-4.57,24.62,24.62,0,0,1,2.13-2.93,4.39,4.39,0,0,0,.91-.8c3.79.51,6.52-5.16,2.54-7.41-6.44-3.62-11.58,4.95-14,9.8-3.06,6.08-5.94,15.4.32,20.54,5.21,4.28,14.15,1.93,16.84-4.16A7.85,7.85,0,0,0,748.3,282.86Zm0,9.14c-2.74.19-3.91-.86-3.49-3.17a13,13,0,0,1,.7-3.33c-.59,2.57,1.47,5.87,4.88,5.08A6,6,0,0,1,748.34,292Z"/><path class="cls-1" d="M774.75,279.71a6.14,6.14,0,0,0-6.33-2.16A5.13,5.13,0,0,0,765,281a5.77,5.77,0,0,0,.55,4.32,6.38,6.38,0,0,0,5.42,3.68,4.88,4.88,0,0,0,4.31-1.31,5.1,5.1,0,0,0,1.37-4.24A7.19,7.19,0,0,0,774.75,279.71Z"/><path class="cls-1" d="M796.77,285.22c-5-1.37-7.09,6.35-2.12,7.72.52,1.45-.14,1.41-2-.09a6,6,0,0,1-1.4-3.41c-.3-2,.39-4.09,1-6,1.39-4.18,3.43-9,7.94-10.55,4.86-1.62,2.78-9.35-2.13-7.71C786.9,269,777.44,288.88,787,298.5c4.07,4.1,11.43,4.57,15.1-.27C806.15,292.92,802.59,286.83,796.77,285.22Z"/><path class="cls-1" d="M870.61,271.19c.26,2.89.65,5.87,1,8.86a19.38,19.38,0,0,1-4.16.24l-.48-7.37c-.29-4.6-6.78-5.07-7.84-1.38-2.48-3.45-7.24-4.35-11.52-4.33-3,0-4.21,2.65-3.77,4.9a4,4,0,0,0-.35,2.62c.29,1.52.55,3,.79,4.56-1.38-4.29-3.61-9.78-7.22-10.78-8.81-2.43-10.81,15.44-11.63,25.13a88.19,88.19,0,0,1-7.51-9.24c1.27-.63,2.92-1.16,3.68-1.65a12.91,12.91,0,0,0,4.51-4.63,8.7,8.7,0,0,0-1.39-10.48c-3.48-3.34-8.18-3.35-12.48-1.72a4.36,4.36,0,0,0-6.11,3.56,19.82,19.82,0,0,0-3,3c-2.69,3.47,1.13,8.19,4.26,6.8.48,4.31.79,8.64.89,13s5.89,5,7.55,2l6.82,8.52c1.82,2.28,4.42,1.43,5.75-.45a4.34,4.34,0,0,0,4.55-3.8c.35-2.86.69-5.72,1.11-8.57l4.71-1a5.37,5.37,0,0,1,0,1.12c-2,3.33,1.51,8.42,5.15,5.69a6.91,6.91,0,0,0,1.78-1.91c0,.26,0,.52,0,.78a3.74,3.74,0,0,0-.25,4.2l.94,1.69c1.92,3.45,7.54,1.93,7.45-2-.08-3.74-.31-7.46-.66-11.17a9,9,0,0,0,5-3.27,3.42,3.42,0,0,0,1.64,2.88c0,.54.09,1.08.11,1.62-1.59,1.39-2.2,3.79-.18,5.59l.74.67a4.14,4.14,0,0,0,5.66,0c1.93-1.59,1.94-4.13,1.72-6.56a32.24,32.24,0,0,0,4.26-.25,49.13,49.13,0,0,1-.06,6.31c-.42,5.13,7.58,5.1,8,0,.61-7.53-1-15.59-1.63-23.1C878.16,266.1,870.16,266.05,870.61,271.19Zm-55.37,6.1c-.15-1.26-.33-2.52-.51-3.78,2.13-.75,5.32-1.34,2.83,2.33A5,5,0,0,1,815.24,277.29Zm20.24,4.17c.1-.59.22-1.18.34-1.74.21.51.41,1,.59,1.54Zm16.79-2.68c-.17-1.09-.34-2.17-.53-3.25a1.83,1.83,0,0,1,.86.65A2,2,0,0,1,852.27,278.78Z"/><path class="cls-1" d="M902.72,288c-3.31.19-6.56-.6-6-4.7.44-3.22,3.11-6.47,6.31-7,5.07-.8,2.92-8.51-2.13-7.72-5.5.87-10,6-11.63,11.5-.23-1.85-.51-3.7-.86-5.53-.95-5.06-8.67-2.92-7.71,2.12A78.24,78.24,0,0,1,882,290.8c0,5.15,8,5.16,8,0,0-.32,0-.63,0-.95,2.33,4.31,7.39,6.47,12.72,6.17C907.84,295.72,907.87,287.72,902.72,288Z"/><path class="cls-1" d="M882.29,264c2-.09,4.26-1.77,4-4-.24-2-.48-4-.71-6s-1.66-4.11-4-4c-2,.09-4.26,1.77-4,4,.23,2,.47,4,.71,6S880,264.13,882.29,264Z"/><path class="cls-1" d="M966.88,278.94c-.68-.56-2.18-1.51-3.41-2.51a35.59,35.59,0,0,1,4.55-.23c5.14-.06,5.16-8.06,0-8-5,.05-17.15,1.75-13.71,9.59,1.27,2.89,4.57,4.86,6.91,6.81a17.63,17.63,0,0,1,3.68,3.69c.73,1.13,1.24,1.72.31,2.2A2.61,2.61,0,0,1,962,289c-.86-3.95-5.77-3.48-7.33-.67-1.66-1.83-4.87-2.3-6.41.48-1.11,2-4,.53-4.68-1a4.09,4.09,0,0,1-.3-1.26,62.69,62.69,0,0,0,8.44-1.78c4.94-1.41,2.84-9.13-2.13-7.71a58.43,58.43,0,0,1-6,1.39c.07-1,.16-1.92.24-2.87l6.64-1.23c2.13-.4,3.33-3,2.79-4.92a4.08,4.08,0,0,0-4.92-2.8l-6.48,1.2a4.45,4.45,0,0,0-5.6,3.66c-.12,1-.28,2.14-.44,3.3a25.49,25.49,0,0,0-19.13-14.18c-5-.75-7.21,6.95-2.13,7.72.28,0,.55.1.83.15a3.9,3.9,0,0,0,0,.77q.52,10.59,1.59,21.13c-1.52,2.57.62,6.95,4.49,6.08l.08,0a3.3,3.3,0,0,0,2.07-.53c4.85-1.38,9.37-3.79,11.92-7.36a12.76,12.76,0,0,0,2.38,5.43c4.1,5.18,13.62,4.93,17.1-.83,3.22,6.29,14.21,7.92,17.95,1.16,2-3.58.53-7.76-1.69-10.85A24.87,24.87,0,0,0,966.88,278.94Zm-38.12,5.54a8.12,8.12,0,0,1-4.11,2.86q-.72-7.72-1.16-15.46a16.87,16.87,0,0,1,3.9,4.12C929.05,278.47,930.59,281.72,928.76,284.48Z"/><path class="cls-1" d="M999.36,280.18c-5-1-7.18,6.7-2.13,7.71,1.92.39-2.42,2.65-3.12,2.84-2.13.56-3.14.85-3-1.55a14.6,14.6,0,0,1,6-10.74c4.14-3,.15-9.93-4-6.91a23.08,23.08,0,0,0-9.77,15.38,17.35,17.35,0,0,0-.16,3.86q-.63-6.31-1.27-12.63c-.5-5.08-8.51-5.13-8,0q.75,7.44,1.49,14.9c.51,5.07,8.52,5.12,8,0-.06-.6-.12-1.19-.17-1.78.4,3.73,2.32,6.89,6.76,7.65,5,.86,11.54-1.42,14.3-5.83C1007.33,288.21,1005.28,281.37,999.36,280.18Z"/><path class="cls-1" d="M974.2,256.78V259a4,4,0,0,0,4,4,4.08,4.08,0,0,0,4-4v-2.24A4.09,4.09,0,0,0,981,254a4,4,0,0,0-6.82,2.82Z"/><path class="cls-1" d="M1025.63,272.43c-.05-5.15-8.05-5.16-8,0,0,2.73,0,5.47,0,8.2,0,.66,0,1.32,0,2-.56-1.05-1.09-2.11-1.6-3.18-1.18-2.48-2.26-5-3.33-7.55a3.14,3.14,0,0,0-4.38-1.78c-2.07-.09-4.07,1.17-3.81,3.81.61,6,1.15,12.12,1.82,18.16.44,3.93,4,7.68,7.73,4.1a3.54,3.54,0,0,0,1.13-3.38,7.18,7.18,0,0,0,5,1.56c3.75-.28,5.19-3.55,5.41-6.88C1025.9,282.5,1025.68,277.41,1025.63,272.43Z"/></g></g></svg>